<svg width="25" height="24" viewBox="0 0 25 24" fill="none" xmlns="http://www.w3.org/2000/svg">
<path d="M21.916 12.3068C24.3595 9.77561 24.3636 5.67282 21.9148 3.1597C19.4549 0.613016 15.4512 0.613434 12.9919 3.16095L12.9919 3.16092L12.9867 3.16642L12.4758 3.70647L11.9731 3.18582C11.9727 3.18533 11.9722 3.18485 11.9717 3.18436C9.5138 0.614645 5.5071 0.610541 3.06667 3.16229C1.87538 4.39702 1.25 6.0294 1.25 7.74496C1.25 9.46778 1.90152 11.0956 3.06263 12.3234L3.0626 12.3234L3.06796 12.329L11.9417 21.5209L12.4812 22.0798L13.0208 21.5209L21.916 12.3068Z" fill="black" stroke="black" stroke-width="1.5"/>
</svg>
